<svg xmlns="http://www.w3.org/2000/svg" width="113" height="45.969" viewBox="0 0 113 45.969">
  <defs>
    <style>
      .cls-1 {
        fill: #fff;
        fill-rule: evenodd;
      }
    </style>
  </defs>
  <path class="cls-1" d="M533.473,193.848a2.319,2.319,0,0,1,1.208,2.28l-2.688,14.793s-0.479,2.171-2,2.34v0.705h12.487l3.777-6.316-0.367-.338s-4.453,5.611-10.2,4.6c0,0-.4-0.028-0.254-0.818s2.692-15.151,2.692-15.151,0.465-1.917,1.743-1.954l0.019-.447h-6.4Zm24.283,17.844-2.368-10.3s-0.376-1.053.413-1.128v-0.827h-4.364v0.6s0.785,0.339,0,1.692l-5.031,9.549s-0.974,1.7-2.217,1.805v0.883h3.89l0.169-.9s-1.222.094-.508-1.09L550,208.083s3.364-.461,4.773,2.246v2.481l-0.564.169v0.987h4.482v-0.883S558.094,213.233,557.756,211.692Zm-7.009-5.489,2.386-4.023,1.2,5.057C553.246,206.071,550.747,206.2,550.747,206.2Zm10.56-6.767h4.144l-0.2.714a0.945,0.945,0,0,0-.9.9l-1.672,8.61a2.18,2.18,0,0,0,2.18,2.819,3.148,3.148,0,0,0,3.57-2.669l1.691-9.1s0.235-.649-0.582-0.663l0.169-.676h3.213l-0.2.789a0.6,0.6,0,0,0-.606.536c-0.085.55-1.959,10.089-1.959,10.089s-0.677,3.271-5.6,3.177c0,0-5.073-.207-4.547-3.74l1.653-9.512a0.532,0.532,0,0,0-.47-0.677Zm21.065-.061c-1.834-.146-7.282-0.184-7.282-0.184l-0.225.874a0.646,0.646,0,0,1,.761.762l-1.973,11.109a1.235,1.235,0,0,1-1.212,1.043l-0.141.762h7.836a7.734,7.734,0,0,0,6.736-6.091S588.177,199.837,582.372,199.375Zm1.729,8.595c-1.917,4.474-5.638,4.06-5.638,4.06-2.367-.113-1.841-2.068-1.841-2.068l0.789-4.7,0.385-2.209c0.448-2.58,3.326-2.114,3.326-2.114C586.055,201.193,584.1,207.97,584.1,207.97Zm6.238-8.779h10.175s0.1,2.143.31,3.384l-0.592.423a4.293,4.293,0,0,0-3.438-2.091h-3.43L592.819,203h2.763a1.192,1.192,0,0,0,1.071-.79l0.479-.028-0.141,3.468H596.6a1.168,1.168,0,0,0-1.268-.9H592.5l-1.029,4.652s-0.449,1.879.228,2.7c0,0,5.448,1.214,8-3.335l0.526,0.151-2.1,4.831H587.295v-0.658a2.375,2.375,0,0,0,1.278-1.767l1.992-10.752s0.1-.738-0.311-0.837Zm13.248-5.545h6.257l-0.075.752s-1.2.226-1.654,2.369l-2.837,14.605s1.162,1.367,3.793.691c0,0,4.231-1.424,6.3-4.732l0.827,0.526-3.457,5.884H600.073l0.188-.809s1.315-.037,1.954-2.255L605,196.485a1.58,1.58,0,0,0-1.541-2.106Zm24.578-4.662a1.485,1.485,0,0,1,2,1.072s1.381,2.594-1.691,4.962c0,0-4.933,3.271-6.4,6.26,0,0-3.834,6.316-2.086,11.9,0,0,2.418,6.823,6.421,6.823H635.3s10.063-10.376,5.158-18.722c0,0-.695.113-0.206,1.09a5.068,5.068,0,0,1-1.541,4.436s-0.488-.094-0.113-0.676c0,0,2.744-6.617-1.09-18.422,0,0-2.4-10.677,3.383-12.181A1.13,1.13,0,0,1,642.019,177a0.451,0.451,0,0,1-.423.409,0.519,0.519,0,0,1-.338-0.747,0.334,0.334,0,0,0-.3-0.367s-0.691-.014-0.536,1.015a1.267,1.267,0,0,0,1.395,1.029s2.142-.775.634-3.341c0,0-1.93-2.227-5.1,0,0,0-5,3.835-5.149,12.068,0,0,.6,14.361-1.5,18.76,0,0-3.025-2.763-2.029-6.335,0,0,1.217-2.708,2.2-4.445,0.893-1.582,1.908-7.569-2.4-7.3a1.776,1.776,0,0,0-1.776,2.016c0.065,0.45,1.142,1.339,1.677.705,0.163-.193.2-0.479-0.422-0.917C627.83,189.462,627.884,189.18,628.165,188.984Z" transform="translate(-530 -174.031)"/>
</svg>
