<?xml version="1.0" encoding="utf-8"?>
<!-- Generator: Adobe Illustrator 16.0.0, SVG Export Plug-In . SVG Version: 6.00 Build 0)  -->
<!DOCTYPE svg PUBLIC "-//W3C//DTD SVG 1.1//EN" "http://www.w3.org/Graphics/SVG/1.1/DTD/svg11.dtd">
<svg version="1.1" id="Layer_1" xmlns="http://www.w3.org/2000/svg" xmlns:xlink="http://www.w3.org/1999/xlink" x="0px" y="0px"
	 width="30px" height="30px" viewBox="0 0 30 30" enable-background="new 0 0 30 30" xml:space="preserve">
<g>
	<path fill="#FFFFFF" d="M26.616,26.815H0.784V0.582h25.832V26.815z M1.784,25.815h23.832V1.582H1.784V25.815z"/>
</g>
<g>
	<path fill="#FFFFFF" d="M25.824,3.162c0.016,0.326,0.016,0.652-0.011,0.979h1.889v24.256H3.849v-2.235
		c-0.224,0.019-0.451,0.034-0.688,0.034c-0.099,0-0.192-0.014-0.291-0.016v3.195h25.811V3.162H25.824z"/>
</g>
<g>
	<path fill="#FFFFFF" d="M24.151,19.948H4.064l6.699-13.401l5.049,7.589l2.446-3.058L24.151,19.948z M5.683,18.948h16.604
		l-4.102-6.176l-2.446,3.057l-4.852-7.292L5.683,18.948z"/>
</g>
</svg>
