<?xml version="1.0" encoding="utf-8"?>
<!-- Generator: Adobe Illustrator 19.2.1, SVG Export Plug-In . SVG Version: 6.00 Build 0)  -->
<svg version="1.1" id="Layer_1" xmlns="http://www.w3.org/2000/svg" xmlns:xlink="http://www.w3.org/1999/xlink" x="0px" y="0px"
	 viewBox="0 0 30 30" style="enable-background:new 0 0 30 30;" xml:space="preserve">
<style type="text/css">
	.st0{fill:#FFFFFF;}
</style>
<g>
	<path class="st0" d="M0.5,0.6v29.2h29.2V0.6H0.5z M28.7,1.6v4.3H1.5V1.6H28.7z M13,17.6v-4.9h4.8v4.9H13z M12,12.7v4.9H7.1v-4.9H12
		z M13,18.6h4.8v4.8H13V18.6z M18.8,17.6v-4.9h4.8v4.9H18.8z M18.8,11.7V6.9h4.8v4.8H18.8z M17.8,11.7H13V6.9h4.8V11.7z M12,11.7
		H7.1V6.9H12V11.7z M7.1,18.6H12v4.8H7.1V18.6z M18.8,23.4v-4.8h4.8v4.8H18.8z M6.1,6.9v4.8H1.5V6.9H6.1z M6.1,12.7v4.9H1.5v-4.9
		H6.1z M6.1,18.6v4.8H1.5v-4.8H6.1z M7.1,24.4H12v4.4H7.1V24.4z M13,24.4h4.8v4.4H13V24.4z M18.8,24.4h4.8v4.4h-4.8V24.4z
		 M24.6,23.4v-4.8h4.1v4.8H24.6z M24.6,17.6v-4.9h4.1v4.9H24.6z M24.6,11.7V6.9h4.1v4.8H24.6z M1.5,24.4h4.6v4.4H1.5V24.4z
		 M24.6,28.8v-4.4h4.1v4.4H24.6z"/>
	<circle class="st0" cx="9.8" cy="3.7" r="1"/>
	<circle class="st0" cx="15.1" cy="3.7" r="1"/>
	<circle class="st0" cx="19.9" cy="3.7" r="1"/>
</g>
</svg>
