<?xml version="1.0" encoding="utf-8"?>
<!-- Generator: Adobe Illustrator 16.0.0, SVG Export Plug-In . SVG Version: 6.00 Build 0)  -->
<!DOCTYPE svg PUBLIC "-//W3C//DTD SVG 1.1//EN" "http://www.w3.org/Graphics/SVG/1.1/DTD/svg11.dtd">
<svg version="1.1" id="Layer_1" xmlns="http://www.w3.org/2000/svg" xmlns:xlink="http://www.w3.org/1999/xlink" x="0px" y="0px"
	 width="30px" height="30px" viewBox="0 0 30 30" enable-background="new 0 0 30 30" xml:space="preserve">
<g>
	<path fill="#FFFFFF" d="M29.25,9.238h-1.919V3.479h-4.802v5.759H22.05V5.399h-6.72v3.839h-0.48v-4.8H9.088v4.8H7.3
		c0.012-0.037,0.026-0.075,0.035-0.115C7.426,8.66,7.274,8.191,6.929,7.87C6.542,7.513,6.297,7.126,6.196,6.724L6.104,6.36H5.249
		V4.851C6.074,4.638,6.688,3.892,6.688,3V0.6H2.849V3c0,0.893,0.614,1.638,1.439,1.852V6.36H3.627L3.536,6.724
		C3.435,7.126,3.188,7.513,2.802,7.87c-0.347,0.321-0.5,0.79-0.406,1.253c0.007,0.04,0.021,0.078,0.033,0.115h-1.98V12.6H1.41v16.8
		h26.879V12.6h0.961V9.238z M5.249,1.561H5.73V3c0,0.354-0.194,0.665-0.481,0.832V1.561z M3.81,3V1.561h0.478v2.271
		C4.002,3.664,3.81,3.354,3.81,3L3.81,3z M23.488,4.438h2.882v4.8h-2.882V4.438z M16.289,6.36h4.8v2.878h-4.8V6.36z M10.049,5.399
		h3.839v3.839h-3.839V5.399z M3.336,8.937C3.299,8.741,3.404,8.618,3.454,8.576c0.415-0.385,0.715-0.807,0.895-1.257h1.034
		c0.178,0.45,0.479,0.872,0.895,1.257c0.047,0.042,0.155,0.166,0.115,0.361C6.358,9.11,6.182,9.238,5.98,9.238H3.751
		C3.55,9.238,3.372,9.11,3.336,8.937L3.336,8.937z M11.01,28.439V27.48h7.678v0.959H11.01z M13.375,22.664
		c-0.308-1.4,0.082-2.902,1.038-4.014l0.389-0.449c0.539,0.994,0.812,1.997,0.812,2.992c0,0.232,0.166,0.433,0.396,0.473
		c0.229,0.042,0.454-0.09,0.534-0.307c0.011-0.024,0.144-0.396,0.269-0.959l0.158,0.184c1.006,1.169,1.02,2.889,0.033,4.002
		c-0.031,0.036-0.066,0.068-0.097,0.102l-0.052,0.052c-0.42,0.407-0.924,0.663-1.454,0.77c-0.01,0-0.02,0.001-0.029,0.005
		c-0.161,0.028-0.325,0.045-0.49,0.047c-0.012,0-0.023,0-0.035,0c-0.16,0-0.316-0.018-0.474-0.045
		c-0.028-0.006-0.059-0.01-0.087-0.015c-0.152-0.033-0.3-0.078-0.448-0.134c-0.026-0.01-0.051-0.021-0.079-0.03
		c-0.15-0.063-0.298-0.138-0.437-0.229c-0.014-0.008-0.023-0.016-0.035-0.022c-0.15-0.101-0.296-0.213-0.429-0.345l-0.021-0.021
		c-0.052-0.052-0.103-0.104-0.152-0.158c-0.572-0.664-0.806-1.549-0.685-2.393c0.258,0.536,0.5,0.891,0.516,0.917
		c0.131,0.188,0.373,0.237,0.582,0.146C13.312,23.137,13.424,22.891,13.375,22.664L13.375,22.664z M17.729,26.521H15.02
		c0.04-0.004,0.078-0.014,0.118-0.016c0.136-0.01,0.272-0.027,0.405-0.052c0.057-0.013,0.111-0.019,0.169-0.032
		c0.159-0.038,0.315-0.088,0.47-0.143c0.047-0.021,0.094-0.036,0.141-0.059c0.176-0.072,0.347-0.156,0.509-0.256
		c0.011-0.007,0.022-0.016,0.035-0.021c0.181-0.112,0.354-0.239,0.515-0.383h0.35v0.961H17.729z M11.969,25.561h0.367
		c0.008,0.006,0.015,0.012,0.022,0.016c0.154,0.136,0.318,0.26,0.494,0.367c0.01,0.008,0.019,0.016,0.031,0.021
		c0.157,0.096,0.324,0.178,0.493,0.249c0.053,0.022,0.109,0.044,0.164,0.066c0.16,0.058,0.321,0.108,0.485,0.146
		c0.059,0.016,0.115,0.02,0.171,0.031c0.125,0.021,0.249,0.037,0.373,0.047c0.042,0.004,0.085,0.014,0.127,0.018H11.97v-0.961
		H11.969z M23.969,28.439H19.65v-1.92h-0.961V24.6h-0.521c0.829-1.437,0.671-3.314-0.472-4.641l-0.827-0.961
		c-0.125-0.145-0.326-0.202-0.507-0.145c-0.068,0.021-0.129,0.055-0.178,0.1c-0.201-0.566-0.472-1.131-0.818-1.688
		c-0.012-0.021-0.026-0.041-0.042-0.063l-0.103-0.117c-0.091-0.105-0.223-0.167-0.363-0.167s-0.272,0.062-0.364,0.167l-0.809,0.939
		c-0.635,0.735-1.062,1.619-1.256,2.543c-0.069-0.137-0.199-0.231-0.356-0.256c-0.19-0.027-0.38,0.059-0.48,0.223
		c-0.778,1.267-0.773,2.822-0.045,4.064H11.01v1.92h-0.961v1.922h-4.32v-9.825l1.439-0.959v-1.218h15.361v1.218l1.438,0.959
		L23.969,28.439L23.969,28.439z M27.331,28.439H24.93V18.104l-1.439-0.961V15.48H6.21v1.661l-1.441,0.963v10.336h-2.4V12.6h0.48
		v0.961c0,0.265,0.215,0.478,0.48,0.478c0.265,0,0.481-0.213,0.481-0.478V12.6h0.478v0.961c0,0.265,0.215,0.478,0.48,0.478
		c0.266,0,0.48-0.213,0.48-0.478V12.6h0.481v0.961c0,0.265,0.215,0.478,0.48,0.478s0.478-0.213,0.478-0.478V12.6h0.481v0.961
		c0,0.265,0.216,0.478,0.48,0.478s0.48-0.213,0.48-0.478V12.6H8.61v0.961c0,0.265,0.213,0.478,0.478,0.478
		c0.265,0,0.481-0.213,0.481-0.478V12.6h0.48v0.961c0,0.265,0.215,0.478,0.48,0.478c0.265,0,0.481-0.213,0.481-0.478V12.6h0.478
		v0.961c0,0.265,0.216,0.478,0.481,0.478c0.265,0,0.48-0.213,0.48-0.478V12.6h0.48v0.961c0,0.265,0.216,0.478,0.48,0.478
		c0.265,0,0.478-0.213,0.478-0.478V12.6h0.48v0.961c0,0.265,0.216,0.478,0.481,0.478c0.265,0,0.48-0.213,0.48-0.478V12.6h0.48v0.961
		c0,0.265,0.213,0.478,0.479,0.478c0.265,0,0.479-0.213,0.479-0.478V12.6h0.48v0.961c0,0.265,0.217,0.478,0.48,0.478
		c0.266,0,0.479-0.213,0.479-0.478V12.6h0.479v0.961c0,0.265,0.215,0.478,0.479,0.478s0.479-0.213,0.479-0.478V12.6h0.481v0.961
		c0,0.265,0.215,0.478,0.479,0.478c0.266,0,0.479-0.213,0.479-0.478V12.6h0.48v0.961c0,0.265,0.215,0.478,0.479,0.478
		c0.267,0,0.479-0.213,0.479-0.478V12.6h0.48v0.961c0,0.265,0.213,0.478,0.479,0.478c0.265,0,0.479-0.213,0.479-0.478V12.6h0.479
		v0.961c0,0.265,0.218,0.478,0.48,0.478c0.266,0,0.48-0.213,0.48-0.478V12.6h0.479v0.961c0,0.265,0.215,0.478,0.48,0.478
		c0.264,0,0.479-0.213,0.479-0.478V12.6h0.479v15.839H27.331z M28.289,11.639H1.41V10.2h26.879V11.639z"/>
</g>
</svg>
