<?xml version="1.0" encoding="utf-8"?>
<!-- Generator: Adobe Illustrator 19.2.1, SVG Export Plug-In . SVG Version: 6.00 Build 0)  -->
<svg version="1.1" id="Layer_1" xmlns="http://www.w3.org/2000/svg" xmlns:xlink="http://www.w3.org/1999/xlink" x="0px" y="0px"
	 viewBox="0 0 30 30" style="enable-background:new 0 0 30 30;" xml:space="preserve">
<style type="text/css">
	.st0{fill:#FFFFFF;}
</style>
<g>
	<g>
		<path class="st0" d="M19.8,7.2c0,0.3-0.1,0.7-0.3,1c1.8,0.7,7.4,3.2,7.3,9.5c0,0.2-0.1,4.7-4.9,7.6l-0.2,0.1v3.1h-2.6v-2.3
			l-0.7,0.3c0,0-2.8,1.1-5.6,0l-0.7-0.3v2.3H9.8v-3.4L9.5,25c0,0-1.7-0.8-2.7-2.3l-0.1-0.2H2.9V16h1.8l0.1-0.4c0,0,0.5-2.7,1.8-3.8
			L7,11.5L5.7,9.7L8.4,10l0.2-0.1c0,0,1.6-1.4,3.5-1.8c0,0,0,0.1,0.1,0.1c-0.1-0.3-0.2-0.7-0.2-1c-1.8,0.4-3.3,1.5-3.8,1.9L3.5,8.5
			l2.1,2.8c-1,1.1-1.5,2.8-1.7,3.6h-2v8.5H6c0.9,1.2,2.1,2,2.7,2.3v3.8h4.5v-1.9c2.1,0.6,4,0.3,4.9,0v1.9h4.6v-3.5
			c5-3.3,5.1-8.1,5.1-8.3C27.9,10.7,21.7,7.9,19.8,7.2z"/>
	</g>
</g>
<g>
	<path class="st0" d="M15.8,10.3c-2.7,0-4.9-2.2-4.9-4.8c0-2.7,2.2-4.9,4.9-4.9s4.9,2.2,4.9,4.9C20.6,8.1,18.5,10.3,15.8,10.3z
		 M15.8,1.6c-2.1,0-3.9,1.7-3.9,3.9c0,2.1,1.7,3.9,3.9,3.9c2.1,0,3.9-1.7,3.9-3.9C19.6,3.3,17.9,1.6,15.8,1.6z"/>
</g>
<g>
	<circle class="st0" cx="8.5" cy="15.3" r="0.9"/>
</g>
<g>
	<g>
		<path class="st0" d="M13.1,8.5C11.2,9,10.1,9.9,10,10l0.6,0.8c0,0,1.2-1,3.3-1.4C13.6,9.1,13.4,8.8,13.1,8.5z"/>
	</g>
</g>
<g>
	<g>
		<path class="st0" d="M18.5,8.6c-0.2,0.3-0.5,0.6-0.9,0.8c1.7,0.5,2.7,1.2,2.7,1.3l0.6-0.8C20.9,9.9,20,9.2,18.5,8.6z"/>
	</g>
</g>
</svg>
