<?xml version="1.0" encoding="utf-8"?>
<!-- Generator: Adobe Illustrator 19.2.1, SVG Export Plug-In . SVG Version: 6.00 Build 0)  -->
<svg version="1.1" id="Layer_1" xmlns="http://www.w3.org/2000/svg" xmlns:xlink="http://www.w3.org/1999/xlink" x="0px" y="0px"
	 viewBox="0 0 30 30" style="enable-background:new 0 0 30 30;" xml:space="preserve">
<style type="text/css">
	.st0{fill:#FFFFFF;}
</style>
<g>
	<path class="st0" d="M15.2,29.6c-8,0-14.5-6.5-14.5-14.5c0-8,6.5-14.5,14.5-14.5s14.5,6.5,14.5,14.5S23.2,29.6,15.2,29.6z
		 M15.2,1.6C7.7,1.6,1.7,7.7,1.7,15.1s6.1,13.5,13.5,13.5c7.4,0,13.5-6.1,13.5-13.5C28.7,7.7,22.6,1.6,15.2,1.6z"/>
</g>
<g>
	<path class="st0" d="M13.1,9.1l-0.6-0.6c-1.1-1-2.7-1-3.7,0.1L8.3,9.1L7.6,8.4l0.5-0.5c1.4-1.4,3.6-1.4,5.1-0.1l0.6,0.6L13.1,9.1z"
		/>
</g>
<g>
	<path class="st0" d="M22,9.1l-0.6-0.6c-1.1-1-2.7-1-3.7,0.1l-0.5,0.5l-0.7-0.7l0.5-0.5c1.4-1.4,3.6-1.4,5.1-0.1l0.6,0.6L22,9.1z"/>
</g>
<g>
	<path class="st0" d="M15.2,24.6c-1.5,0-3.1-0.6-4.3-1.7l-1.1-1l0.7-0.7l1.1,1c2.1,1.9,5.3,1.9,7.4-0.1l0.9-0.9l0.7,0.7l-0.9,0.9
		C18.4,24,16.8,24.6,15.2,24.6z"/>
</g>
</svg>
