<?xml version="1.0" encoding="utf-8"?>
<!-- Generator: Adobe Illustrator 19.2.1, SVG Export Plug-In . SVG Version: 6.00 Build 0)  -->
<svg version="1.1" id="Layer_1" xmlns="http://www.w3.org/2000/svg" xmlns:xlink="http://www.w3.org/1999/xlink" x="0px" y="0px"
	 viewBox="0 0 30 30" style="enable-background:new 0 0 30 30;" xml:space="preserve">
<style type="text/css">
	.st0{fill:#FFFFFF;}
	.st1{fill:none;}
</style>
<path class="st0" d="M29.7,29.8H0.5V0.6h29.2V29.8z M1.5,28.8h27.2V1.6H1.5V28.8z"/>
<g>
	<line class="st1" x1="6.6" y1="29.3" x2="6.6" y2="6.4"/>
	<rect x="6.1" y="6.4" class="st0" width="1" height="22.8"/>
</g>
<g>
	<line class="st1" x1="12.5" y1="29.3" x2="12.5" y2="6.4"/>
	<rect x="12" y="6.4" class="st0" width="1" height="22.8"/>
</g>
<g>
	<line class="st1" x1="18.3" y1="29.3" x2="18.3" y2="6.4"/>
	<rect x="17.8" y="6.4" class="st0" width="1" height="22.8"/>
</g>
<g>
	<line class="st1" x1="24.1" y1="29.3" x2="24.1" y2="6.4"/>
	<rect x="23.6" y="6.4" class="st0" width="1" height="22.8"/>
</g>
<g>
	<line class="st1" x1="29.2" y1="23.9" x2="1" y2="23.9"/>
	<rect x="1" y="23.4" class="st0" width="28.2" height="1"/>
</g>
<g>
	<line class="st1" x1="29.2" y1="18.1" x2="1" y2="18.1"/>
	<rect x="1" y="17.6" class="st0" width="28.2" height="1"/>
</g>
<g>
	<line class="st1" x1="29.2" y1="12.2" x2="1" y2="12.2"/>
	<rect x="1" y="11.7" class="st0" width="28.2" height="1"/>
</g>
<g>
	<line class="st1" x1="29.2" y1="6.4" x2="1" y2="6.4"/>
	<rect x="1" y="5.9" class="st0" width="28.2" height="1"/>
</g>
<g>
	<circle class="st0" cx="9.8" cy="3.7" r="1"/>
</g>
<g>
	<circle class="st0" cx="15.1" cy="3.7" r="1"/>
</g>
<g>
	<circle class="st0" cx="19.9" cy="3.7" r="1"/>
</g>
</svg>
