<?xml version="1.0" encoding="utf-8"?>
<!-- Generator: Adobe Illustrator 19.2.1, SVG Export Plug-In . SVG Version: 6.00 Build 0)  -->
<svg version="1.1" id="Layer_1" xmlns="http://www.w3.org/2000/svg" xmlns:xlink="http://www.w3.org/1999/xlink" x="0px" y="0px"
	 viewBox="0 0 30 30" style="enable-background:new 0 0 30 30;" xml:space="preserve">
<style type="text/css">
	.st0{fill:#FFFFFF;}
</style>
<g>
	<path class="st0" d="M15.1,26.9c-6.4,0-11.5-5.2-11.5-11.5V8.1h23.1v7.3C26.7,21.7,21.5,26.9,15.1,26.9z M4.6,9.1v6.3
		c0,5.8,4.7,10.5,10.5,10.5s10.5-4.7,10.5-10.5V9.1C25.7,9.1,4.6,9.1,4.6,9.1z"/>
</g>
<g>
	<path class="st0" d="M29.6,29.6H0.4v-3.7h29.3V29.6z M1.4,28.6h27.3v-1.7H1.4V28.6z"/>
</g>
<g>
	<path class="st0" d="M15.5,8.8l-0.4-0.6c-1.3-2-1.4-4.6-0.1-6.6l0.5-0.9l0.9,0.5l-0.5,0.9c-1,1.7-1,3.9,0.1,5.6l0.4,0.6L15.5,8.8z"
		/>
</g>
<g>
	<path class="st0" d="M18.4,8.8L18,8.2c-1.3-2-1.4-4.6-0.1-6.6l0.5-0.9l0.9,0.5l-0.5,0.9c-1,1.7-1,3.9,0.1,5.6l0.4,0.6L18.4,8.8z"/>
</g>
<g>
	<path class="st0" d="M12.4,8.8L12,8.2c-1.3-2-1.4-4.6-0.1-6.6l0.5-0.9l0.9,0.5l-0.5,0.9c-1,1.7-1,3.9,0.1,5.6l0.4,0.6L12.4,8.8z"/>
</g>
</svg>
