<?xml version="1.0" encoding="utf-8"?>
<!-- Generator: Adobe Illustrator 19.2.1, SVG Export Plug-In . SVG Version: 6.00 Build 0)  -->
<svg version="1.1" id="Layer_1" xmlns="http://www.w3.org/2000/svg" xmlns:xlink="http://www.w3.org/1999/xlink" x="0px" y="0px"
	 viewBox="0 0 30 30" style="enable-background:new 0 0 30 30;" xml:space="preserve">
<style type="text/css">
	.st0{fill:#FFFFFF;}
</style>
<g>
	<path class="st0" d="M15,29.5C7,29.5,0.6,23,0.6,15.1C0.6,7.1,7,0.6,15,0.6s14.4,6.5,14.4,14.4S23,29.5,15,29.5z M15,1.6
		c-7.4,0-13.5,6-13.5,13.5s6,13.5,13.5,13.5c7.4,0,13.5-6,13.5-13.5C28.5,7.6,22.4,1.6,15,1.6z"/>
</g>
<g>
	<path class="st0" d="M12.9,9.1l-0.6-0.6c-1.1-1-2.7-1-3.7,0.1L8.1,9.1L7.4,8.4l0.5-0.5c1.4-1.4,3.6-1.4,5.1-0.1l0.6,0.6L12.9,9.1z"
		/>
</g>
<g>
	<path class="st0" d="M21.8,9.1l-0.6-0.6c-1.1-1-2.7-1-3.7,0.1L17,9.1l-0.7-0.7l0.5-0.5c1.4-1.4,3.6-1.4,5.1-0.1l0.6,0.6L21.8,9.1z"
		/>
</g>
<g>
	<path class="st0" d="M15,24.5c-1.5,0-3.1-0.6-4.3-1.7l-1.1-1l0.7-0.7l1.1,1c2.1,1.9,5.3,1.9,7.3-0.1l0.9-0.9l0.7,0.7l-0.9,0.9
		C18.2,23.9,16.6,24.5,15,24.5z"/>
</g>
</svg>
