<?xml version="1.0" encoding="utf-8"?>
<!-- Generator: Adobe Illustrator 19.2.1, SVG Export Plug-In . SVG Version: 6.00 Build 0)  -->
<svg version="1.1" id="Layer_1" xmlns="http://www.w3.org/2000/svg" xmlns:xlink="http://www.w3.org/1999/xlink" x="0px" y="0px"
	 viewBox="0 0 30 30" style="enable-background:new 0 0 30 30;" xml:space="preserve">
<style type="text/css">
	.st0{fill:#FFFFFF;}
</style>
<g>
	<path class="st0" d="M27,25.9H3V0.6H27V25.9z M4,24.9H26V1.6H4V24.9z"/>
</g>
<g>
	<rect x="7.6" y="1.1" class="st0" width="1" height="24.3"/>
</g>
<g>
	<rect x="12.1" y="1.1" class="st0" width="1" height="24.3"/>
</g>
<g>
	<rect x="16.8" y="1.1" class="st0" width="1" height="24.3"/>
</g>
<g>
	<rect x="21.4" y="1.1" class="st0" width="1" height="24.3"/>
</g>
<g>
	<path class="st0" d="M8.1,29.6c-1.3,0-2.4-1.1-2.4-2.4s1.1-2.4,2.4-2.4s2.4,1.1,2.4,2.4S9.4,29.6,8.1,29.6z M8.1,25.9
		c-0.7,0-1.4,0.6-1.4,1.4s0.6,1.4,1.4,1.4s1.4-0.6,1.4-1.4S8.8,25.9,8.1,25.9z"/>
</g>
<g>
	<path class="st0" d="M21.9,29.6c-1.3,0-2.4-1.1-2.4-2.4s1.1-2.4,2.4-2.4s2.4,1.1,2.4,2.4S23.2,29.6,21.9,29.6z M21.9,25.9
		c-0.7,0-1.4,0.6-1.4,1.4s0.6,1.4,1.4,1.4c0.7,0,1.4-0.6,1.4-1.4S22.7,25.9,21.9,25.9z"/>
</g>
</svg>
