<?xml version="1.0" encoding="utf-8"?>
<!-- Generator: Adobe Illustrator 19.2.1, SVG Export Plug-In . SVG Version: 6.00 Build 0)  -->
<svg version="1.1" id="Layer_1" xmlns="http://www.w3.org/2000/svg" xmlns:xlink="http://www.w3.org/1999/xlink" x="0px" y="0px"
	 viewBox="0 0 30 30" style="enable-background:new 0 0 30 30;" xml:space="preserve">
<style type="text/css">
	.st0{fill:#FFFFFF;}
</style>
<g>
	<path class="st0" d="M26.5,26.9h-26V0.6h26V26.9z M1.5,26h24V1.5h-24V26z"/>
</g>
<g>
	<path class="st0" d="M25.7,3.1c0,0.3,0,0.7,0,1h2.8v24.4h-24v-2.2c-0.2,0-0.5,0-0.7,0c-0.1,0-0.2,0-0.3,0v3.2h26V3.1H25.7z"/>
</g>
<g>
	<path class="st0" d="M24,20H3.8l6.7-13.5l5.1,7.6l2.5-3.1L24,20z M5.4,19h16.8L18,12.8l-2.5,3.1l-4.9-7.3L5.4,19z"/>
</g>
</svg>
