<?xml version="1.0" encoding="utf-8"?>
<!-- Generator: Adobe Illustrator 19.2.1, SVG Export Plug-In . SVG Version: 6.00 Build 0)  -->
<svg version="1.1" id="Layer_1" xmlns="http://www.w3.org/2000/svg" xmlns:xlink="http://www.w3.org/1999/xlink" x="0px" y="0px"
	 viewBox="0 0 30 30" style="enable-background:new 0 0 30 30;" xml:space="preserve">
<style type="text/css">
	.st0{fill:#FFFFFF;}
</style>
<g>
	<path class="st0" d="M28.6,29.6H2.4V15.5h26.2V29.6z M3.4,28.6h24.2V16.5H3.4V28.6z"/>
</g>
<g>
	<g>
		<path class="st0" d="M18.6,26.2c-0.2,0.4-0.4,0.7-0.6,1h3v1.4H9.6v-1.4h3.2c-0.3-0.3-0.5-0.6-0.7-1H8.6v3.4H22v-3.4H18.6z"/>
	</g>
</g>
<g>
	<path class="st0" d="M28.6,14.8H2.4v-3.5h26.2V14.8z M3.4,13.8h24.2v-1.5H3.4V13.8z"/>
</g>
<g>
	<path class="st0" d="M19.5,5.1h-8V0.5h8V5.1z M12.5,4.1h6V1.5h-6V4.1z"/>
</g>
<g>
	<path class="st0" d="M24.9,12.3H6L11.8,4h7.4L24.9,12.3z M7.9,11.3H23L18.6,5h-6.3L7.9,11.3z"/>
</g>
<g>
	<path class="st0" d="M24.7,29.1h-1c0-3-0.8-5.3-2.5-6.9c-2.3-2.1-5.4-2.1-5.7-2.1v0v0c0,0,0,0,0,0l0,0l0,0c0,0-3.4-0.2-5.8,2.1
		c-1.6,1.5-2.5,3.8-2.5,6.9h-1c0-3.3,0.9-5.9,2.8-7.6c2.5-2.4,5.9-2.3,6.4-2.3c0.5,0,3.9-0.1,6.4,2.3C23.7,23.2,24.7,25.8,24.7,29.1
		z"/>
</g>
<path class="st0" d="M-38.2,17.7h-2.9v-1.4h-0.5V7.1h1.4V5.6h1v-1h-3.4V4.2h0.5c0.2,0,0.4-0.1,0.4-0.3c0.1-0.2,0-0.4-0.1-0.5
	l-1.9-1.9c-0.1-0.1-0.2-0.1-0.3-0.1h-1.2l-3.1-3.4h0V-5h-1.4v-5.3h-4.8V-5h-1.5v2.9h0l-3.1,3.4h-1.2c-0.1,0-0.3,0.1-0.3,0.1
	l-1.9,1.9c-0.1,0.1-0.2,0.3-0.1,0.5c0.1,0.2,0.2,0.3,0.4,0.3h0.5v0.5h-3.4v1h1v1.5h1.5v9.2h-0.5v1.4h-2.9c-0.3,0-0.5,0.2-0.5,0.5
	c0,0.3,0.2,0.5,0.5,0.5h28c0.3,0,0.5-0.2,0.5-0.5C-37.7,17.9-37.9,17.7-38.2,17.7 M-53.7-9.3h2.9V-5h-2.9V-9.3z M-55.1-4h5.8v1h-5.8
	C-55.1-3.1-55.1-4-55.1-4z M-54.7-2.1h5.1l3.1,3.4h-11.3L-54.7-2.1z M-60.2,2.3h16l1,1h-18L-60.2,2.3z M-60.9,4.2h17.4v0.5h-17.4
	V4.2z M-63.3,5.6h22.2v0.5h-22.2V5.6z M-61.9,7.1h19.3v9.2h-1c0-4.6-3.6-8.4-8.1-8.7h0l-0.1,0c0,0-0.1,0-0.1,0c-0.1,0-0.3,0-0.4,0
	c0,0-0.1,0-0.1,0c-0.2,0-0.4,0-0.6,0c-0.1,0-0.1,0-0.2,0h0h0c-4.4,0.5-7.8,4.2-7.8,8.7h-1V7.1z M-52.3,8.5c0.1,0,0.1,0,0.2,0
	c0,0,0.1,0,0.1,0c0.3,0.8,0.5,1.6,0.5,2.4c0,0.2,0.2,0.4,0.4,0.5c0.2,0,0.5-0.1,0.5-0.3c0,0,0.1-0.4,0.3-1l0.2,0.2c1,1.2,1,2.9,0,4
	c0,0-0.1,0.1-0.1,0.1l0,0c-0.1,0.1-0.3,0.3-0.4,0.4c0,0,0,0,0,0c-0.1,0.1-0.3,0.2-0.5,0.2c0,0,0,0-0.1,0c-0.2,0.1-0.3,0.1-0.5,0.1
	c0,0,0,0-0.1,0c-0.2,0-0.3,0-0.5,0h0h0c-0.2,0-0.3,0-0.5,0c0,0-0.1,0-0.1,0c-0.2,0-0.3-0.1-0.5-0.1c0,0-0.1,0-0.1,0
	c-0.2-0.1-0.3-0.1-0.4-0.2c0,0,0,0,0,0c-0.2-0.1-0.3-0.2-0.4-0.3l0,0c-0.1-0.1-0.1-0.1-0.2-0.2c-0.6-0.7-0.8-1.6-0.7-2.4
	c0.3,0.5,0.5,0.9,0.5,0.9c0.1,0.2,0.4,0.2,0.6,0.1c0.2-0.1,0.3-0.3,0.3-0.6c-0.3-1.3,0-2.7,0.9-3.8C-52.7,8.6-52.5,8.5-52.3,8.5
	 M-54.7,10.3c-0.1-0.1-0.2-0.2-0.4-0.3c-0.2,0-0.4,0.1-0.5,0.2c-0.8,1.3-0.8,2.8,0,4.1H-58v1.9H-60c0-3.6,2.5-6.7,5.9-7.5
	C-54.4,9.3-54.5,9.8-54.7,10.3 M-57.1,15.3h2.3c0,0,0,0,0,0c0.2,0.1,0.3,0.3,0.5,0.4c0,0,0,0,0,0c0.2,0.1,0.3,0.2,0.5,0.3
	c0.1,0,0.1,0,0.2,0.1c0.2,0.1,0.3,0.1,0.5,0.1c0.1,0,0.1,0,0.2,0c0.1,0,0.3,0,0.4,0c0,0,0.1,0,0.1,0h-4.7
	C-57.1,16.3-57.1,15.3-57.1,15.3z M-51.9,16.3c0.1,0,0.3,0,0.4-0.1c0.1,0,0.1,0,0.2,0c0.2,0,0.3-0.1,0.5-0.1c0,0,0.1,0,0.1-0.1
	c0.2-0.1,0.4-0.2,0.5-0.3c0,0,0,0,0,0c0.2-0.1,0.4-0.2,0.5-0.4h1.8v1H-52C-52,16.3-52,16.3-51.9,16.3 M-48.9,14.3
	c0.8-1.4,0.7-3.3-0.5-4.7l-0.7-0.8c3.2,0.9,5.6,3.9,5.6,7.4h-2.4v-1.9L-48.9,14.3L-48.9,14.3z M-62.4,17.2h20.3v0.5h-20.3V17.2z"/>
<g>
	<path class="st0" d="M17.1,29.6h-3.3l-0.1-0.1c-1.2-1.1-1.8-2.2-1.8-3.5c0.1-2.3,2.2-4,2.3-4.1l0.9-0.7L15,22.3
		c-0.2,2.3,0.7,2.8,1,2.9c0.6-0.2,0.9-0.9,0.9-0.9l0.3-0.8l0.6,0.7c1.7,2,0.4,4.4-0.6,5.4L17.1,29.6z M14.2,28.6h2.5
		c0.4-0.5,1.4-1.9,0.8-3.3c-0.3,0.4-0.7,0.7-1.4,0.8l-0.1,0l-0.1,0c-0.1,0-1.6-0.3-1.9-2.7C13.5,24,12.9,25,12.9,26
		C12.8,26.9,13.3,27.8,14.2,28.6z"/>
</g>
</svg>
