<?xml version="1.0" encoding="utf-8"?>
<!-- Generator: Adobe Illustrator 19.2.1, SVG Export Plug-In . SVG Version: 6.00 Build 0)  -->
<svg version="1.1" id="Layer_1" xmlns="http://www.w3.org/2000/svg" xmlns:xlink="http://www.w3.org/1999/xlink" x="0px" y="0px"
	 viewBox="0 0 30 30" style="enable-background:new 0 0 30 30;" xml:space="preserve">
<style type="text/css">
	.st0{fill:#FFFFFF;}
	.st1{fill:none;}
</style>
<path class="st0" d="M29.6,29.6H0.4V0.4h29.2V29.6z M1.4,28.6h27.2V1.4H1.4V28.6z"/>
<g>
	<line class="st1" x1="6.5" y1="29.1" x2="6.5" y2="6.2"/>
	<rect x="6" y="6.2" class="st0" width="1" height="22.8"/>
</g>
<g>
	<line class="st1" x1="12.4" y1="29.1" x2="12.4" y2="6.2"/>
	<rect x="11.9" y="6.2" class="st0" width="1" height="22.8"/>
</g>
<g>
	<line class="st1" x1="18.2" y1="29.1" x2="18.2" y2="6.2"/>
	<rect x="17.7" y="6.2" class="st0" width="1" height="22.8"/>
</g>
<g>
	<line class="st1" x1="24" y1="29.1" x2="24" y2="6.2"/>
	<rect x="23.5" y="6.2" class="st0" width="1" height="22.8"/>
</g>
<g>
	<line class="st1" x1="29.1" y1="23.7" x2="0.9" y2="23.7"/>
	<rect x="0.9" y="23.2" class="st0" width="28.2" height="1"/>
</g>
<g>
	<line class="st1" x1="29.1" y1="17.9" x2="0.9" y2="17.9"/>
	<rect x="0.9" y="17.4" class="st0" width="28.2" height="1"/>
</g>
<g>
	<line class="st1" x1="29.1" y1="12" x2="0.9" y2="12"/>
	<rect x="0.9" y="11.5" class="st0" width="28.2" height="1"/>
</g>
<g>
	<line class="st1" x1="29.1" y1="6.2" x2="0.9" y2="6.2"/>
	<rect x="0.9" y="5.7" class="st0" width="28.2" height="1"/>
</g>
<g>
	<circle class="st0" cx="9.7" cy="3.5" r="1"/>
</g>
<g>
	<circle class="st0" cx="15" cy="3.5" r="1"/>
</g>
<g>
	<circle class="st0" cx="19.8" cy="3.5" r="1"/>
</g>
</svg>
