<?xml version="1.0" encoding="utf-8"?>
<!-- Generator: Adobe Illustrator 19.2.1, SVG Export Plug-In . SVG Version: 6.00 Build 0)  -->
<svg version="1.1" id="Layer_1" xmlns="http://www.w3.org/2000/svg" xmlns:xlink="http://www.w3.org/1999/xlink" x="0px" y="0px"
	 viewBox="0 0 30 30" style="enable-background:new 0 0 30 30;" xml:space="preserve">
<style type="text/css">
	.st0{fill:#FFFFFF;}
</style>
<g>
	<g>
		<path class="st0" d="M19.9,7.1c0,0.3-0.1,0.7-0.3,1c1.8,0.7,7.4,3.2,7.3,9.5c0,0.2-0.1,4.7-4.9,7.6l-0.2,0.1v3.1h-2.6l0-2.3
			l-0.7,0.3c0,0-2.8,1.1-5.6,0l-0.7-0.3v2.3H9.9V25l-0.3-0.1c0,0-1.7-0.8-2.7-2.3l-0.1-0.2H3v-6.5h1.8l0.1-0.4c0,0,0.5-2.7,1.8-3.8
			l0.4-0.3L5.8,9.6l2.7,0.3l0.2-0.1c0,0,1.6-1.4,3.5-1.8c0,0,0,0.1,0.1,0.1c-0.1-0.3-0.2-0.7-0.2-1c-1.8,0.4-3.3,1.5-3.8,1.9
			L3.6,8.4l2.1,2.8c-1,1.1-1.5,2.8-1.7,3.6H2v8.5h4.1c0.9,1.2,2.1,2,2.7,2.3v3.8h4.5v-1.9c2.1,0.6,4,0.3,4.9,0v1.9h4.6v-3.5
			c5-3.3,5.1-8.1,5.1-8.3C28,10.6,21.8,7.8,19.9,7.1z"/>
	</g>
</g>
<g>
	<path class="st0" d="M15.9,10.2C13.2,10.2,11,8,11,5.4c0-2.7,2.2-4.9,4.9-4.9c2.7,0,4.9,2.2,4.9,4.9C20.7,8,18.6,10.2,15.9,10.2z
		 M15.9,1.5c-2.1,0-3.9,1.7-3.9,3.9c0,2.1,1.7,3.9,3.9,3.9c2.1,0,3.9-1.7,3.9-3.9C19.7,3.2,18,1.5,15.9,1.5z"/>
</g>
<g>
	<circle class="st0" cx="8.6" cy="15.2" r="0.9"/>
</g>
<g>
	<g>
		<path class="st0" d="M13.2,8.4c-1.9,0.5-3,1.4-3.1,1.5l0.6,0.8c0,0,1.2-1,3.3-1.4C13.7,9,13.5,8.7,13.2,8.4z"/>
	</g>
</g>
<g>
	<g>
		<path class="st0" d="M18.6,8.5c-0.2,0.3-0.5,0.6-0.9,0.8c1.7,0.5,2.7,1.2,2.7,1.3L21,9.8C21,9.8,20.1,9.1,18.6,8.5z"/>
	</g>
</g>
</svg>
